<mxfile host="app.diagrams.net" modified="2021-07-11T07:38:54.664Z" agent="5.0 (Windows NT 10.0; Win64; x64) AppleWebKit/537.36 (KHTML, like Gecko) Chrome/91.0.4472.124 Safari/537.36" etag="PjjjPxIJy7gGJwf7B_Mc" version="14.8.5" type="github">
  <diagram id="817d6QD8t_V4_GzXnMFw" name="Page-1">
    <mxGraphModel dx="952" dy="456" grid="1" gridSize="10" guides="1" tooltips="1" connect="1" arrows="1" fold="1" page="1" pageScale="1" pageWidth="827" pageHeight="1169" math="0" shadow="0">
      <root>
        <mxCell id="0" />
        <mxCell id="1" parent="0" />
        <mxCell id="IKbw0D4kiUT2lOSd2rGw-1" value="Thủ kho" style="shape=umlActor;verticalLabelPosition=bottom;verticalAlign=top;html=1;outlineConnect=0;" vertex="1" parent="1">
          <mxGeometry x="440" y="510" width="30" height="60" as="geometry" />
        </mxCell>
        <mxCell id="IKbw0D4kiUT2lOSd2rGw-2" value="Xem đơn hàng chưa duyệt" style="ellipse;whiteSpace=wrap;html=1;" vertex="1" parent="1">
          <mxGeometry x="280" y="610" width="120" height="80" as="geometry" />
        </mxCell>
        <mxCell id="IKbw0D4kiUT2lOSd2rGw-3" value="Xem đơn hàng đã duyệt" style="ellipse;whiteSpace=wrap;html=1;" vertex="1" parent="1">
          <mxGeometry x="640" y="320" width="120" height="80" as="geometry" />
        </mxCell>
        <mxCell id="IKbw0D4kiUT2lOSd2rGw-4" value="" style="endArrow=none;html=1;exitX=0.659;exitY=0.024;exitDx=0;exitDy=0;exitPerimeter=0;" edge="1" parent="1" source="IKbw0D4kiUT2lOSd2rGw-2" target="IKbw0D4kiUT2lOSd2rGw-1">
          <mxGeometry width="50" height="50" relative="1" as="geometry">
            <mxPoint x="390" y="640" as="sourcePoint" />
            <mxPoint x="440" y="590" as="targetPoint" />
          </mxGeometry>
        </mxCell>
        <mxCell id="IKbw0D4kiUT2lOSd2rGw-5" value="" style="endArrow=none;html=1;entryX=0.5;entryY=1;entryDx=0;entryDy=0;" edge="1" parent="1" target="IKbw0D4kiUT2lOSd2rGw-3" source="IKbw0D4kiUT2lOSd2rGw-1">
          <mxGeometry width="50" height="50" relative="1" as="geometry">
            <mxPoint x="430" y="530" as="sourcePoint" />
            <mxPoint x="440" y="410" as="targetPoint" />
          </mxGeometry>
        </mxCell>
        <mxCell id="IKbw0D4kiUT2lOSd2rGw-6" value="Duyệt đơn hàng" style="ellipse;whiteSpace=wrap;html=1;" vertex="1" parent="1">
          <mxGeometry x="40" y="610" width="120" height="80" as="geometry" />
        </mxCell>
        <mxCell id="IKbw0D4kiUT2lOSd2rGw-7" value="Xuất excel chi tiết đơn hàng" style="ellipse;whiteSpace=wrap;html=1;" vertex="1" parent="1">
          <mxGeometry x="40" y="780" width="120" height="80" as="geometry" />
        </mxCell>
        <mxCell id="IKbw0D4kiUT2lOSd2rGw-9" value="&amp;lt;&amp;lt;include&amp;gt;&amp;gt;" style="html=1;verticalAlign=bottom;labelBackgroundColor=none;endArrow=open;endFill=0;dashed=1;exitX=0;exitY=0.5;exitDx=0;exitDy=0;entryX=1;entryY=0.5;entryDx=0;entryDy=0;" edge="1" parent="1" source="IKbw0D4kiUT2lOSd2rGw-2" target="IKbw0D4kiUT2lOSd2rGw-6">
          <mxGeometry width="160" relative="1" as="geometry">
            <mxPoint x="257.57359312880703" y="658.2842712474619" as="sourcePoint" />
            <mxPoint x="177.21000000000004" y="739.8599999999999" as="targetPoint" />
          </mxGeometry>
        </mxCell>
        <mxCell id="IKbw0D4kiUT2lOSd2rGw-10" value="&amp;lt;&amp;lt;include&amp;gt;&amp;gt;" style="html=1;verticalAlign=bottom;labelBackgroundColor=none;endArrow=open;endFill=0;dashed=1;exitX=0;exitY=1;exitDx=0;exitDy=0;entryX=1.014;entryY=0.388;entryDx=0;entryDy=0;entryPerimeter=0;" edge="1" parent="1" source="IKbw0D4kiUT2lOSd2rGw-2" target="IKbw0D4kiUT2lOSd2rGw-7">
          <mxGeometry width="160" relative="1" as="geometry">
            <mxPoint x="250" y="640" as="sourcePoint" />
            <mxPoint x="150" y="660" as="targetPoint" />
          </mxGeometry>
        </mxCell>
      </root>
    </mxGraphModel>
  </diagram>
</mxfile>
